<svg xmlns="http://www.w3.org/2000/svg" width="960" height="520" viewBox="0 0 960 520"><rect width="100%" height="100%" fill="#fff"/><text x="480" y="34" fill="#16232a" font-family="Arial" font-size="24" text-anchor="middle">Top refresh reason codes</text><text x="178" y="87.7" fill="#27343b" font-family="Arial" font-size="13" text-anchor="end">declining_with_demand</text><rect width="730" height="27.3" x="190" y="70" fill="#8C6BB1" rx="4"/><text x="928" y="87.7" fill="#27343b" font-family="Arial" font-size="13">1.32e+04</text><text x="178" y="125" fill="#27343b" font-family="Arial" font-size="13" text-anchor="end">visible_model_opportunity</text><rect width="591.7" height="27.3" x="190" y="107.3" fill="#8C6BB1" rx="4"/><text x="789.7" y="125" fill="#27343b" font-family="Arial" font-size="13">1.07e+04</text><text x="178" y="162.3" fill="#27343b" font-family="Arial" font-size="13" text-anchor="end">low_ctr_visible_page</text><rect width="541.7" height="27.3" x="190" y="144.5" fill="#8C6BB1" rx="4"/><text x="739.7" y="162.3" fill="#27343b" font-family="Arial" font-size="13">9.76e+03</text><text x="178" y="199.5" fill="#27343b" font-family="Arial" font-size="13" text-anchor="end">ctr_review_candidate</text><rect width="541.7" height="27.3" x="190" y="181.8" fill="#8C6BB1" rx="4"/><text x="739.7" y="199.5" fill="#27343b" font-family="Arial" font-size="13">9.76e+03</text><text x="178" y="236.8" fill="#27343b" font-family="Arial" font-size="13" text-anchor="end">general_refresh_review</text><rect width="506" height="27.3" x="190" y="219.1" fill="#8C6BB1" rx="4"/><text x="704" y="236.8" fill="#27343b" font-family="Arial" font-size="13">9.12e+03</text><text x="178" y="274.1" fill="#27343b" font-family="Arial" font-size="13" text-anchor="end">model_decline_risk</text><rect width="467.6" height="27.3" x="190" y="256.4" fill="#8C6BB1" rx="4"/><text x="665.6" y="274.1" fill="#27343b" font-family="Arial" font-size="13">8.42e+03</text><text x="178" y="311.4" fill="#27343b" font-family="Arial" font-size="13" text-anchor="end">page_one_decay_risk</text><rect width="392.8" height="27.3" x="190" y="293.6" fill="#8C6BB1" rx="4"/><text x="590.8" y="311.4" fill="#27343b" font-family="Arial" font-size="13">7.08e+03</text><text x="178" y="348.6" fill="#27343b" font-family="Arial" font-size="13" text-anchor="end">low_engagement_visible_page</text><rect width="361.2" height="27.3" x="190" y="330.9" fill="#8C6BB1" rx="4"/><text x="559.2" y="348.6" fill="#27343b" font-family="Arial" font-size="13">6.51e+03</text><text x="178" y="385.9" fill="#27343b" font-family="Arial" font-size="13" text-anchor="end">engagement_review_candidate</text><rect width="361.2" height="27.3" x="190" y="368.2" fill="#8C6BB1" rx="4"/><text x="559.2" y="385.9" fill="#27343b" font-family="Arial" font-size="13">6.51e+03</text><text x="178" y="423.2" fill="#27343b" font-family="Arial" font-size="13" text-anchor="end">thin_visible_page</text><rect width="4.6" height="27.3" x="190" y="405.5" fill="#8C6BB1" rx="4"/><text x="202.6" y="423.2" fill="#27343b" font-family="Arial" font-size="13">82</text><text x="178" y="460.5" fill="#27343b" font-family="Arial" font-size="13" text-anchor="end">stale_visible_page</text><rect width=".9" height="27.3" x="190" y="442.7" fill="#8C6BB1" rx="4"/><text x="198.9" y="460.5" fill="#27343b" font-family="Arial" font-size="13">17</text></svg>